<svg xmlns="http://www.w3.org/2000/svg" viewBox="0 0 400 400" width="400" height="400">
  <!-- White Background Circle -->
  <circle cx="200" cy="200" r="192" fill="#ffffff" stroke="#f0f0f0" stroke-width="4"/>

  <!-- Red Upper-Left Swoosh Arc -->
  <path fill="#e30613" d="M 200 10 C 110 10 30 65 5 150 C -15 210 0 280 40 330 C 5 270 0 190 35 125 C 70 60 135 25 200 10 Z" />
  <path fill="#e30613" d="M 200 10 C 255 10 305 35 340 80 C 300 40 250 20 200 10 Z" />

  <!-- Blue Lower-Right Swoosh Arc -->
  <path fill="#004b97" d="M 200 390 C 290 390 370 335 395 250 C 415 190 400 120 360 70 C 395 130 400 210 365 275 C 330 340 265 375 200 390 Z" />
  <path fill="#004b97" d="M 200 390 C 145 390 95 365 60 320 C 100 360 150 380 200 390 Z" />

  <!-- Red Stylized 'R' -->
  <path fill="#e30613" d="M 72 305 L 128 105 L 205 105 C 248 105 275 122 269 158 C 263 190 234 208 192 212 L 232 305 L 178 305 L 144 220 L 122 220 L 98 305 Z M 134 180 L 178 180 C 205 180 220 169 222 155 C 224 141 213 132 190 132 L 148 132 Z" />

  <!-- Blue Stylized 'T' -->
  <path fill="#004b97" d="M 260 105 L 375 105 L 364 145 L 306 145 L 264 305 L 216 305 L 258 145 L 225 145 L 235 105 Z" />
</svg>