<svg xmlns="http://www.w3.org/2000/svg" viewBox="0 0 1000 440" width="1000" height="440">
  <g transform="translate(20, 20)">
    <!-- CIRCULAR EMBLEM -->
    <g id="emblem">
      <!-- White background backing -->
      <circle cx="200" cy="200" r="190" fill="#ffffff" />
      
      <!-- Red Upper-Left Swoosh Arc -->
      <path fill="#e30613" d="M 200 10 C 110 10 30 65 5 150 C -15 210 0 280 40 330 C 5 270 0 190 35 125 C 70 60 135 25 200 10 Z" />
      <path fill="#e30613" d="M 200 10 C 255 10 305 35 340 80 C 300 40 250 20 200 10 Z" />
      <path fill="#e30613" d="M 200 10 C 95 10 10 95 10 200 C 10 120 85 25 200 10 Z" />

      <!-- Blue Lower-Right Swoosh Arc -->
      <path fill="#004b97" d="M 200 390 C 290 390 370 335 395 250 C 415 190 400 120 360 70 C 395 130 400 210 365 275 C 330 340 265 375 200 390 Z" />
      <path fill="#004b97" d="M 200 390 C 145 390 95 365 60 320 C 100 360 150 380 200 390 Z" />
      <path fill="#004b97" d="M 200 390 C 305 390 390 305 390 200 C 390 280 315 375 200 390 Z" />

      <!-- Red Stylized 'R' -->
      <path fill="#e30613" d="M 72 305 L 128 105 L 205 105 C 248 105 275 122 269 158 C 263 190 234 208 192 212 L 232 305 L 178 305 L 144 220 L 122 220 L 98 305 Z M 134 180 L 178 180 C 205 180 220 169 222 155 C 224 141 213 132 190 132 L 148 132 Z" />

      <!-- Blue Stylized 'T' -->
      <path fill="#004b97" d="M 260 105 L 375 105 L 364 145 L 306 145 L 264 305 L 216 305 L 258 145 L 225 145 L 235 105 Z" />
    </g>

    <!-- WORDMARK: KNITS -->
    <g fill="#004b97" transform="translate(440, 95)">
      <!-- K -->
      <path d="M 0 210 L 48 0 L 98 0 L 62 100 L 132 0 L 190 0 L 106 108 L 178 210 L 118 210 L 68 132 L 48 210 Z" />
      <!-- N -->
      <path d="M 170 210 L 218 0 L 270 0 L 315 135 L 345 0 L 393 0 L 345 210 L 293 210 L 250 75 L 218 210 Z" />
      <!-- I -->
      <path d="M 382 210 L 430 0 L 478 0 L 430 210 Z" />
      <!-- T -->
      <path d="M 452 0 L 595 0 L 584 45 L 536 45 L 498 210 L 450 210 L 488 45 L 440 45 Z" />
      <!-- S -->
      <path d="M 600 160 C 595 195 628 215 675 215 C 725 215 758 190 763 155 C 768 120 738 105 690 95 C 660 88 648 78 651 62 C 654 48 672 38 695 38 C 720 38 738 48 735 68 L 782 68 C 787 30 750 0 695 0 C 642 0 606 28 601 65 C 596 100 628 115 675 125 C 705 132 717 142 714 158 C 710 174 690 182 666 182 C 638 182 621 170 624 148 Z" />
    </g>
  </g>
</svg>
